<svg width="1500" height="600" viewBox="0 0 1500 600" fill="none" xmlns="http://www.w3.org/2000/svg">
    <rect width="1500" height="600" fill="#D5D5D5" />
    <path
        d="M682.768 298.888C687.664 300.04 690.112 302.728 690.112 306.952C690.112 309.832 689.024 312.056 686.848 313.624C684.672 315.16 681.568 315.928 677.536 315.928H658V311.944H664.192V286.984H658V283H676.768C680.256 283 682.944 283.784 684.832 285.352C686.752 286.92 687.712 288.984 687.712 291.544C687.712 293.272 687.264 294.76 686.368 296.008C685.504 297.224 684.304 298.184 682.768 298.888ZM669.088 286.984V297.496H675.568C677.808 297.496 679.552 297.064 680.8 296.2C682.08 295.304 682.72 293.944 682.72 292.12C682.72 290.36 682.128 289.064 680.944 288.232C679.76 287.4 678.256 286.984 676.432 286.984H669.088ZM677.056 311.944C682.432 311.944 685.12 310.152 685.12 306.568C685.12 304.712 684.4 303.352 682.96 302.488C681.552 301.624 679.568 301.176 677.008 301.144H669.088V311.944H677.056Z"
        fill="black" />
    <path
        d="M720.589 315.352C719.533 315.992 718.301 316.312 716.893 316.312C715.709 316.312 714.701 315.976 713.869 315.304C713.069 314.6 712.509 313.608 712.189 312.328C708.989 315.176 705.821 316.6 702.685 316.6C700.477 316.6 698.605 315.976 697.069 314.728C695.533 313.48 694.765 311.736 694.765 309.496C694.765 307.96 695.197 306.632 696.061 305.512C696.925 304.36 698.077 303.496 699.517 302.92C700.989 302.312 702.573 302.008 704.269 302.008C705.709 302.008 707.037 302.152 708.253 302.44C709.469 302.696 710.717 303.08 711.997 303.592V301.48C711.997 299.848 711.453 298.648 710.365 297.88C709.277 297.112 707.853 296.728 706.093 296.728C703.597 296.728 700.589 297.416 697.069 298.792L696.109 295.144C699.885 293.544 703.405 292.744 706.669 292.744C709.773 292.744 712.173 293.512 713.869 295.048C715.597 296.552 716.461 298.76 716.461 301.672V309.976C716.461 311.544 717.021 312.328 718.141 312.328C718.621 312.328 719.117 312.2 719.629 311.944L720.589 315.352ZM699.421 309.256C699.421 310.344 699.853 311.192 700.717 311.8C701.581 312.376 702.637 312.664 703.885 312.664C704.973 312.664 706.221 312.376 707.629 311.8C709.037 311.224 710.493 310.376 711.997 309.256V306.712C709.821 305.944 707.517 305.528 705.085 305.464C703.517 305.464 702.173 305.8 701.053 306.472C699.965 307.112 699.421 308.04 699.421 309.256Z"
        fill="black" />
    <path
        d="M755.513 312.136V315.928H742.169V312.136H746.345V302.776C746.345 301.016 745.897 299.64 745.001 298.648C744.137 297.624 742.889 297.112 741.257 297.112C738.473 297.112 735.529 298.872 732.425 302.392V312.136H736.601V315.928H722.633V312.136H727.721V297.112H722.633V293.32H732.425V298.648C734.217 296.664 735.929 295.192 737.561 294.232C739.225 293.24 741.001 292.744 742.889 292.744C745.481 292.744 747.481 293.576 748.889 295.24C750.297 296.904 751.001 299.368 751.001 302.632V312.136H755.513Z"
        fill="black" />
    <path
        d="M790.435 312.136V315.928H777.091V312.136H781.267V302.776C781.267 301.016 780.819 299.64 779.923 298.648C779.059 297.624 777.811 297.112 776.179 297.112C773.395 297.112 770.451 298.872 767.347 302.392V312.136H771.523V315.928H757.555V312.136H762.643V297.112H757.555V293.32H767.347V298.648C769.139 296.664 770.851 295.192 772.483 294.232C774.147 293.24 775.923 292.744 777.811 292.744C780.403 292.744 782.403 293.576 783.811 295.24C785.219 296.904 785.923 299.368 785.923 302.632V312.136H790.435Z"
        fill="black" />
    <path
        d="M815.858 312.568C812.786 315.256 809.282 316.6 805.346 316.6C803.202 316.6 801.17 316.152 799.25 315.256C797.33 314.36 795.778 313.048 794.594 311.32C793.41 309.592 792.818 307.544 792.818 305.176C792.818 302.648 793.426 300.44 794.642 298.552C795.858 296.664 797.442 295.224 799.394 294.232C801.346 293.208 803.394 292.696 805.538 292.696C807.426 292.696 809.106 293 810.578 293.608C812.082 294.216 813.25 295.064 814.082 296.152C814.946 297.24 815.378 298.488 815.378 299.896C815.378 302.008 814.466 303.656 812.642 304.84C810.85 305.992 808.69 306.568 806.162 306.568C804.53 306.568 803.01 306.408 801.602 306.088C800.194 305.736 798.77 305.24 797.33 304.6V305.032C797.33 306.536 797.682 307.864 798.386 309.016C799.122 310.168 800.098 311.048 801.314 311.656C802.53 312.264 803.858 312.568 805.298 312.568C808.562 312.568 811.41 311.544 813.842 309.496L815.858 312.568ZM805.874 296.44C804.146 296.44 802.53 296.936 801.026 297.928C799.554 298.92 798.498 300.264 797.858 301.96C800.29 302.824 802.722 303.256 805.154 303.256C806.754 303.256 808.066 302.968 809.09 302.392C810.146 301.784 810.674 300.952 810.674 299.896C810.674 298.872 810.226 298.04 809.33 297.4C808.434 296.76 807.282 296.44 805.874 296.44Z"
        fill="black" />
    <path
        d="M841.663 292.744V302.344H837.487V297.4C836.239 297.4 834.879 297.864 833.407 298.792C831.935 299.72 830.415 301.032 828.847 302.728V312.136H833.983V315.928H819.055V312.136H824.143V297.112H819.055V293.32H828.847V298.984C830.543 297.032 832.303 295.512 834.127 294.424C835.983 293.304 837.823 292.744 839.647 292.744H841.663Z"
        fill="black" />
</svg>
