<svg width="201" height="30" fill="none" xmlns="http://www.w3.org/2000/svg">
    <path
        d="M12.211 12.779c-.542.464-1.238 1.238-1.238 2.012 0 .826.696 1.342 1.444 1.239 3.252-.49 9.908-7.096 9.728-10.579C22.067 3.826 21.06 3 19.513 3c-3.07 0-8.489 4.128-10.682 6.218C6.174 11.721 3 15.798 3 19.59c0 2.968 2.064 4.748 4.928 4.748 2.425 0 6.708-1.548 11.74-6.399.98-.929 1.393-1.29 1.316-2.606-2.452 2.167-8.128 6.399-11.379 6.399-1.858 0-2.735-1.084-2.735-2.916 0-1.96 1.316-4.825 3.122-6.94 5.78-6.76 8.721-6.863 9.185-6.992.413-.104.697.077.697.516 0 .851-1.625 3.173-4.128 5.34l-.052-.051c.13-.413 0-.594-.258-.594-.284 0-1.135.826-1.316 1.007l-1.909 1.677zM31.945 16.004c-.8.593-1.522 1.574-2.657 1.367.49-1.006 1.006-1.909 1.006-3.044 0-.774-.155-1.316-.929-1.522.284-.155.594-.31.594-.697 0-.697-.852-.955-1.42-.929-1.574.078-3.431.774-4.825 1.91-1.444 1.109-2.399 2.399-2.347 4.334.103 2.348 1.341 3.69 2.683 3.69 1.625 0 2.89-.826 3.973-1.936 1.884 0 3.02-.619 4.18-2.09l-.258-1.083zm-4.747-2.013c.103.052-1.11 1.678-1.11 3.02 0 .438.13.773.31 1.186-.593.542-1.135 1.032-1.987 1.032-.645 0-1.135-.232-1.135-.98 0-.8.49-1.806 1.058-2.374.774-.748 1.986-1.367 2.864-1.884z"
        fill="#D14045" />
    <path
        d="M37.97 12.134c1.65-1.6 5.47-5.47 5.47-7.818 0-.49-.233-.955-.749-.955-1.084 0-5.134 3.148-7.224 5.65-2.039 2.426-3.56 5.187-3.56 8.438 0 1.238.231 3.741 1.908 3.741 1.703 0 3.51-1.574 4.619-2.735 1.651-.026 2.967-.438 4.128-1.651l-.258-.852c-.826.594-1.677 1.161-2.735.955.439-.955 1.239-2.142 1.239-3.225 0-.49-.155-1.136-.774-1.136-1.523 0-3.587 2.53-3.587 4.026 0 .412.155.67.361 1.006-.438.516-.903 1.213-1.728 1.341-.98.13-1.6-1.212-1.136-2.838l4.025-3.947zm3.302-6.554l.052.052c-.439.929-1.007 2.4-6.4 7.766l-.05-.052c1.522-2.993 3.844-5.599 6.398-7.766z"
        fill="#D14045" />
    <path
        d="M45.05 13.63c1.212-2.657 2.683-4.98 3.947-5.599-.465 1.471-2.064 3.948-3.896 5.65l-.052-.05zm5.03 2.735c-1.032.929-3.018 2.58-4.437 2.58-.697 0-1.058-.516-1.29-1.11-.13-.618-.052-1.34.18-1.78 5.599-5.418 6.27-7.688 6.45-10.14.026-.335-.077-.954-.516-.954-.825 0-3.276 2.4-5.547 5.212-1.677 2.064-2.838 4.98-2.838 7.689 0 1.522.413 3.354 2.296 3.354 2.22 0 4.645-2.606 6.064-4.077l-.362-.774z"
        fill="#D14045" />
    <path
        d="M60.241 16.004c-.8.593-1.522 1.574-2.657 1.367.49-1.006 1.006-1.909 1.006-3.044 0-.774-.155-1.316-.929-1.522.284-.155.593-.31.593-.697 0-.697-.851-.955-1.419-.929-1.574.078-3.431.774-4.825 1.91-1.444 1.109-2.4 2.399-2.347 4.334.103 2.348 1.341 3.69 2.683 3.69 1.625 0 2.89-.826 3.973-1.936 1.884 0 3.02-.619 4.18-2.09l-.258-1.083zm-4.747-2.013c.103.052-1.11 1.678-1.11 3.02 0 .438.13.773.31 1.186-.594.542-1.135 1.032-1.987 1.032-.645 0-1.135-.232-1.135-.98 0-.8.49-1.806 1.058-2.374.774-.748 1.986-1.367 2.864-1.884z"
        fill="#D14045" />
    <path
        d="M64.124 13.579c.155.877.258 1.573.335 2.115-.077 1.497-.49 1.935-2.038 2.89-.49-.67-1.058-1.47-2.013-1.522l3.716-3.483zm3.509 4.128c-1.264.954-2.27 1.729-3.922 1.445 1.651-1.007 3.354-2.58 3.354-4.696 0-1.135-.387-2.013-.49-2.993-.077-.723-.232-.955-1.006-.955-.93 0-1.42.826-1.47 1.677l-5.6 5.135c-.206.206-.62.567-.62.903 0 .232.181.49.44.49.232 0 .412-.18.567-.335.465 1.883 2.374 2.864 4.103 2.941 2.064.103 4.876-2.245 6.45-3.819l-.258-.98-1.548 1.187zM87.144 12.572l.516-.464c3.02-.594 10.837-1.651 10.837-5.831 0-1.393-1.058-3.148-5.496-3.148-2.683 0-7.508 1.006-10.01 1.96-.878.336-1.626 1.317-2.168 2.04-.8 1.057-1.187 1.986-1.187 2.167 0 .438.207.696.645.696.284 0 .568-.103.8-.18 1.497-.49 1.987-.723 3.587-.98.335-.052.928-.207.928-.594 0-.207-.206-.31-.36-.387 3.92-1.42 6.656-1.755 7.25-1.806 2.992-.207 3.715.696 3.74 1.264.052.696-1.315 2.451-7.147 3.25 2.142-2.502 2.323-2.837 2.503-3.276-2.58 0-4.283 2.167-5.96 3.793-.774.232-4.386.284-4.386 1.393 0 .877 1.651.955 2.374 1.006-2.993 3.948-2.864 4.077-2.864 4.903 0 2.348 2.58 2.967 4.438 2.864 6.94-.387 10.114-3.87 10.114-5.341 0-2.477-6.322-2.993-8.154-3.329zm-1.135 1.29c1.058 0 6.373.387 6.373 1.73 0 1.031-3.56 2.708-5.857 2.734-.826 0-2.864-.31-2.864-1.419 0-.542.568-1.11.903-1.47l1.445-1.575z"
        fill="#D14045" />
    <path
        d="M101.05 14.765l.052.052c-1.032 1.238-2.374 2.606-2.374 4.36 0 .981.671 1.987 1.755 1.987 1.47 0 4.438-2.864 5.418-3.973l-.181-.955c-.851.645-2.476 2.322-3.586 2.322-.387 0-.8-.31-.8-.722 0-1.032 1.264-2.296 2.013-2.941.593-.49 1.083-.878 1.083-1.678-.051-.464-.232-.877-.619-1.367-.258-.31-1.677 0-4.102.335.103-.232.18-.464.18-.722 0-.232-.206-.439-.464-.439-.62 0-3.251 1.858-3.251 3.716 0 .541.155.748.697.8-.49.696-1.032 1.341-1.703 1.883l.103 1.135c1.11-1.11 2.193-1.78 3.096-3.2l2.683-.593z"
        fill="#D14045" />
    <path
        d="M115.425 16.133c-1.367 1.084-3.534 2.967-5.366 2.967-.826 0-1.677-.335-1.6-1.316l.052-.567c4.954-1.626 6.218-3.535 6.218-4.8 0-1.031-1.032-1.238-1.858-1.238-3.354-.026-7.095 3.432-6.992 6.812.052 1.703.929 3.38 2.812 3.38 2.555 0 5.393-2.426 6.967-4.258l-.233-.98zm-6.76-.18c.697-1.704 2.194-2.942 3.484-3.277.18-.052.309.103.309.283.026.439-1.522 2.22-3.793 2.993z"
        fill="#D14045" />
    <path
        d="M125.834 17.14c-.464.386-1.599 1.29-2.219 1.29a.48.48 0 01-.464-.465c0-1.78 3.174-3.741 3.174-4.748a6.072 6.072 0 00-.387-1.393c-.155-.361-.31-.49-.413-.49-.749 0-5.496 3.174-7.56 5.805-.103.13-.336.361-.516.361a.286.286 0 01-.284-.283c0-.62 3.251-3.226 3.251-4.232 0-.155.129-.516-1.419-.567-.439 0-.671.025-1.006.31-1.497 1.263-3.122 3.87-3.045 5.65.026.877.31 2.502 1.445 2.502.697 0 1.651-1.264 2.038-1.754 1.161-1.497 2.477-2.838 3.974-3.948l.051.052c-.825 1.187-2.219 2.89-2.219 4.438 0 .877.465 1.703 1.445 1.703 1.884 0 4.541-3.174 5.909-4.387l-.207-1.135-1.548 1.29z"
        fill="#D14045" />
    <path
        d="M132.258 20.751c-1.419 1.032-5.341 4.284-5.341 6.141 0 .336.232.62.593.62 1.007 0 3.277-1.652 5.986-5.96l5.444-4.077-.129-1.084-3.921 2.812-.052-.051 1.935-3.613c.181-.335.542-.928.542-1.315 0-.439-.464-1.316-.98-1.316-.413 0-.723.438-.981.722l-2.761 3.045c-.98 1.058-2.554 1.677-3.276 1.6-.233 0-.388-.052-.413-.258-.233-1.884 1.677-2.606 3.302-3.484l2.942-1.6c.335-.232.851-.593.851-1.057 0-.568-1.006-.671-1.367-.645-1.987.18-7.612 2.915-7.612 6.295 0 1.136.49 3.019 1.935 3.019 1.419 0 4.129-2.348 5.057-3.38l.052.052-1.806 3.534z"
        fill="#D14045" />
    <path
        d="M148.883 16.004c-.8.593-1.522 1.574-2.657 1.367.49-1.006 1.006-1.909 1.006-3.044 0-.774-.155-1.316-.929-1.522.284-.155.594-.31.594-.697 0-.697-.852-.955-1.42-.929-1.573.078-3.431.774-4.824 1.91-1.445 1.109-2.4 2.399-2.348 4.334.103 2.348 1.341 3.69 2.683 3.69 1.626 0 2.89-.826 3.973-1.936 1.884 0 3.019-.619 4.18-2.09l-.258-1.083zm-4.747-2.013c.103.052-1.11 1.678-1.11 3.02 0 .438.129.773.31 1.186-.593.542-1.135 1.032-1.987 1.032-.645 0-1.135-.232-1.135-.98 0-.8.49-1.806 1.058-2.374.774-.748 1.987-1.367 2.864-1.884z"
        fill="#D14045" />
    <path
        d="M152.766 13.579c.155.877.258 1.573.335 2.115-.077 1.497-.49 1.935-2.038 2.89-.49-.67-1.058-1.47-2.012-1.522l3.715-3.483zm3.509 4.128c-1.264.954-2.271 1.729-3.922 1.445 1.651-1.007 3.354-2.58 3.354-4.696 0-1.135-.387-2.013-.49-2.993-.077-.723-.232-.955-1.006-.955-.929 0-1.419.826-1.471 1.677l-5.599 5.135c-.206.206-.619.567-.619.903 0 .232.181.49.439.49.232 0 .412-.18.567-.335.465 1.883 2.374 2.864 4.103 2.941 2.064.103 4.876-2.245 6.45-3.819l-.258-.98-1.548 1.187z"
        fill="#D14045" />
    <path
        d="M167.457 16.133c-1.368 1.084-3.535 2.967-5.367 2.967-.826 0-1.677-.335-1.6-1.316l.052-.567c4.954-1.626 6.218-3.535 6.218-4.8 0-1.031-1.032-1.238-1.858-1.238-3.354-.026-7.095 3.432-6.992 6.812.052 1.703.929 3.38 2.813 3.38 2.554 0 5.392-2.426 6.966-4.258l-.232-.98zm-6.76-.18c.696-1.704 2.193-2.942 3.483-3.277.181-.052.31.103.31.283.025.439-1.523 2.22-3.793 2.993zM170.564 21.242c1.187 0 1.703-1.832 1.703-2.735 0-.878-.697-1.652-1.6-1.652-.929 0-1.496 2.245-1.496 3.148 0 .671.722 1.239 1.393 1.239zm.877-8.437c-.232.541-.774 1.65-.774 2.244 0 .62.955 1.394 1.548 1.394.516 0 .852-.671.852-1.136 0-.155-.052-.284-.129-.438l4.618-9.005c.206-.413.748-1.42.748-1.858 0-.413-.748-.516-1.006-.593-.258-.052-.8-.232-1.084-.232-.671 0-.903.8-1.135 1.315l-3.638 8.309zM180.668 21.242c1.187 0 1.703-1.832 1.703-2.735 0-.878-.697-1.652-1.6-1.652-.929 0-1.497 2.245-1.497 3.148 0 .671.723 1.239 1.394 1.239zm.877-8.437c-.232.541-.774 1.65-.774 2.244 0 .62.955 1.394 1.548 1.394.516 0 .851-.671.851-1.136 0-.155-.051-.284-.129-.438l4.619-9.005c.206-.413.748-1.42.748-1.858 0-.413-.748-.516-1.006-.593-.258-.052-.8-.232-1.084-.232-.671 0-.903.8-1.135 1.315l-3.638 8.309zM190.772 21.242c1.186 0 1.702-1.832 1.702-2.735 0-.878-.696-1.652-1.599-1.652-.929 0-1.497 2.245-1.497 3.148 0 .671.723 1.239 1.394 1.239zm.877-8.437c-.232.541-.774 1.65-.774 2.244 0 .62.954 1.394 1.548 1.394.516 0 .851-.671.851-1.136 0-.155-.051-.284-.129-.438l4.619-9.005c.206-.413.748-1.42.748-1.858 0-.413-.748-.516-1.006-.593-.258-.052-.8-.232-1.084-.232-.671 0-.903.8-1.135 1.315l-3.638 8.309z"
        fill="#D14045" />
</svg>
